<svg viewBox="0 0 0 0" fill="none" xmlns="http://www.w3.org/2000/svg">
<path fill-rule="evenodd" clip-rule="evenodd" d="M-14 26.6667V34H-6.63636C-6.63636 29.9422 -9.92545 26.6667 -14 26.6667ZM-14 16.8889V21.7778C-7.22545 21.7778 -1.72727 27.2533 -1.72727 34H3.18182C3.18182 24.54 -4.50091 16.8889 -14 16.8889ZM-14 7.11111V12C-1.80091 12 8.09091 21.8511 8.09091 34H13C13 19.1378 0.899092 7.11111 -14 7.11111ZM35.0909 -10H-9.09091C-11.7909 -10 -14 -7.8 -14 -5.11111V2.22222H-9.09091V-5.11111H35.0909V29.1111H17.9091V34H35.0909C37.7909 34 40 31.8 40 29.1111V-5.11111C40 -7.8 37.7909 -10 35.0909 -10Z" fill="#E0ECE8"/>
</svg>
